<svg width="52" height="19" viewBox="0 0 52 19" fill="none" xmlns="http://www.w3.org/2000/svg">
<path d="M0.9 12.72H2.28C5.64 12.72 7.8 12.64 10.32 12.16L10.5 13.52C7.9 14 5.72 14.12 2.28 14.12H0.9V12.72ZM0.9 2.2H9.12V3.56H2.54V13.24H0.9V2.2ZM13.24 0.479999H14.9V18.6H13.24V0.479999ZM8.06 7.02H13.92V8.4H8.06V7.02ZM18.3984 14.88H34.7784V16.26H18.3984V14.88ZM25.7184 10.56H27.3784V15.28H25.7184V10.56ZM20.3184 1.76H21.9584V4.98H31.1784V1.76H32.8184V11H20.3184V1.76ZM21.9584 6.32V9.64H31.1784V6.32H21.9584ZM49.9569 0.479999H51.6169V18.56H49.9569V0.479999ZM44.6569 2.42H46.2969C46.2969 7.66 43.9369 12.24 37.8969 15.2L37.0169 13.86C42.2369 11.34 44.6569 7.5 44.6569 2.7V2.42ZM37.8369 2.42H45.3769V3.78H37.8369V2.42Z" fill="#FF9900"/>
</svg>
