<svg width="20" height="21" viewBox="0 0 20 21" fill="none" xmlns="http://www.w3.org/2000/svg">
<path d="M17.5 7C16.8096 7 16.25 6.44036 16.25 5.75V5C16.25 2.24 13.45 0 10 0C6.55 0 3.75 2.24 3.75 5V5.75C3.75 6.44036 3.19036 7 2.5 7C1.125 7 0 7.9 0 9V19C0 20.1 1.125 21 2.5 21H17.5C18.875 21 20 20.1 20 19V9C20 7.9 18.875 7 17.5 7ZM10 16C8.625 16 7.5 15.1 7.5 14C7.5 12.9 8.625 12 10 12C11.375 12 12.5 12.9 12.5 14C12.5 15.1 11.375 16 10 16ZM13.875 5C13.875 6.10457 12.9796 7 11.875 7H8.125C7.02043 7 6.125 6.10457 6.125 5C6.125 3.29 7.8625 1.9 10 1.9C12.1375 1.9 13.875 3.29 13.875 5Z" fill="#A0A0A0"/>
</svg>
