<svg width="21" height="21" viewBox="0 0 21 21" fill="none" xmlns="http://www.w3.org/2000/svg">
<path d="M15.3873 17.7297L15.3749 17.7291L15.3624 17.7292C15.3023 17.7294 15.2432 17.7155 15.19 17.6887L10.7299 15.3723L10.4994 15.2526L10.269 15.3723L5.80647 17.6899L5.80567 17.6904C5.74328 17.7229 5.67262 17.7376 5.60183 17.7324C5.53105 17.7272 5.4635 17.7025 5.40684 17.6614C5.35022 17.6203 5.30687 17.5647 5.28118 17.5012L4.81771 17.6889L5.28118 17.5012C5.25551 17.4378 5.24834 17.3687 5.26035 17.3017L5.26035 17.3017L6.13535 12.4146L6.18243 12.1517L5.99003 11.9664L2.38802 8.49712C2.34111 8.45 2.30818 8.39163 2.29222 8.32829C2.27643 8.26563 2.27771 8.20001 2.29592 8.13801C2.31756 8.07495 2.35637 8.01842 2.40868 7.97485C2.46227 7.93023 2.52782 7.90107 2.59799 7.89118L2.59966 7.89093L7.58716 7.17046L7.84767 7.13283L7.9641 6.89677L10.1604 2.44375L10.1612 2.44194C10.1915 2.38003 10.2389 2.32724 10.2987 2.29005C10.3586 2.25284 10.4281 2.23291 10.4994 2.23291C10.5707 2.23291 10.6403 2.25284 10.7001 2.29005C10.7599 2.32724 10.8074 2.38003 10.8376 2.44193L10.8376 2.44194L10.8397 2.44621L13.0622 6.89055L13.1792 7.1244L13.4379 7.16178L18.4254 7.88226L18.4271 7.88249C18.4973 7.89239 18.5628 7.92155 18.6164 7.96617C18.6687 8.00974 18.7075 8.06627 18.7292 8.12931C18.7474 8.19132 18.7487 8.25694 18.7329 8.31961C18.7169 8.38295 18.684 8.44132 18.6371 8.48845L15.0351 11.9577L14.8427 12.143L14.8898 12.406L15.7648 17.293L15.7647 17.293L15.7659 17.2991C15.779 17.3674 15.7722 17.4379 15.7461 17.5027L16.1559 17.6679L15.7461 17.5027C15.7203 17.5666 15.6765 17.6226 15.6194 17.6638C15.5518 17.7101 15.4703 17.7335 15.3873 17.7297Z" fill="white"/>
<path d="M15.3873 17.7297L15.3749 17.7291L15.3624 17.7292C15.3023 17.7294 15.2432 17.7155 15.19 17.6887L10.7299 15.3723L10.4994 15.2526L10.269 15.3723L5.80647 17.6899L5.80567 17.6904C5.74328 17.7229 5.67262 17.7376 5.60183 17.7324C5.53105 17.7272 5.4635 17.7025 5.40684 17.6614C5.35022 17.6203 5.30687 17.5647 5.28118 17.5012L4.81771 17.6889L5.28118 17.5012C5.25551 17.4378 5.24834 17.3687 5.26035 17.3017L5.26035 17.3017L6.13535 12.4146L6.18243 12.1517L5.99003 11.9664L2.38802 8.49712C2.34111 8.45 2.30818 8.39163 2.29222 8.32829C2.27643 8.26563 2.27771 8.20001 2.29592 8.13801C2.31756 8.07495 2.35637 8.01842 2.40868 7.97485C2.46227 7.93023 2.52782 7.90107 2.59799 7.89118L2.59966 7.89093L7.58716 7.17046L7.84767 7.13283L7.9641 6.89677L10.1604 2.44375L10.1612 2.44194C10.1915 2.38003 10.2389 2.32724 10.2987 2.29005C10.3586 2.25284 10.4281 2.23291 10.4994 2.23291C10.5707 2.23291 10.6403 2.25284 10.7001 2.29005C10.7599 2.32724 10.8074 2.38003 10.8376 2.44193L10.8376 2.44194L10.8397 2.44621L13.0622 6.89055L13.1792 7.1244L13.4379 7.16178L18.4254 7.88226L18.4271 7.88249C18.4973 7.89239 18.5628 7.92155 18.6164 7.96617C18.6687 8.00974 18.7075 8.06627 18.7292 8.12931C18.7474 8.19132 18.7487 8.25694 18.7329 8.31961C18.7169 8.38295 18.684 8.44132 18.6371 8.48845L15.0351 11.9577L14.8427 12.143L14.8898 12.406L15.7648 17.293L15.7647 17.293L15.7659 17.2991C15.779 17.3674 15.7722 17.4379 15.7461 17.5027L16.1559 17.6679L15.7461 17.5027C15.7203 17.5666 15.6765 17.6226 15.6194 17.6638C15.5518 17.7101 15.4703 17.7335 15.3873 17.7297Z" stroke="black"/>
<path d="M15.3873 17.7297L15.3749 17.7291L15.3624 17.7292C15.3023 17.7294 15.2432 17.7155 15.19 17.6887L10.7299 15.3723L10.4994 15.2526L10.269 15.3723L5.80647 17.6899L5.80567 17.6904C5.74328 17.7229 5.67262 17.7376 5.60183 17.7324C5.53105 17.7272 5.4635 17.7025 5.40684 17.6614C5.35022 17.6203 5.30687 17.5647 5.28118 17.5012L4.81771 17.6889L5.28118 17.5012C5.25551 17.4378 5.24834 17.3687 5.26035 17.3017L5.26035 17.3017L6.13535 12.4146L6.18243 12.1517L5.99003 11.9664L2.38802 8.49712C2.34111 8.45 2.30818 8.39163 2.29222 8.32829C2.27643 8.26563 2.27771 8.20001 2.29592 8.13801C2.31756 8.07495 2.35637 8.01842 2.40868 7.97485C2.46227 7.93023 2.52782 7.90107 2.59799 7.89118L2.59966 7.89093L7.58716 7.17046L7.84767 7.13283L7.9641 6.89677L10.1604 2.44375L10.1612 2.44194C10.1915 2.38003 10.2389 2.32724 10.2987 2.29005C10.3586 2.25284 10.4281 2.23291 10.4994 2.23291C10.5707 2.23291 10.6403 2.25284 10.7001 2.29005C10.7599 2.32724 10.8074 2.38003 10.8376 2.44193L10.8376 2.44194L10.8397 2.44621L13.0622 6.89055L13.1792 7.1244L13.4379 7.16178L18.4254 7.88226L18.4271 7.88249C18.4973 7.89239 18.5628 7.92155 18.6164 7.96617C18.6687 8.00974 18.7075 8.06627 18.7292 8.12931C18.7474 8.19132 18.7487 8.25694 18.7329 8.31961C18.7169 8.38295 18.684 8.44132 18.6371 8.48845L15.0351 11.9577L14.8427 12.143L14.8898 12.406L15.7648 17.293L15.7647 17.293L15.7659 17.2991C15.779 17.3674 15.7722 17.4379 15.7461 17.5027L16.1559 17.6679L15.7461 17.5027C15.7203 17.5666 15.6765 17.6226 15.6194 17.6638C15.5518 17.7101 15.4703 17.7335 15.3873 17.7297Z" stroke="black" stroke-opacity="0.2"/>
</svg>
