<svg width="13" height="15" viewBox="0 0 13 15" fill="none" xmlns="http://www.w3.org/2000/svg">
<path d="M12.285 10.3167C11.3967 10.3167 10.5372 10.15 9.73555 9.85C9.48278 9.75 9.20111 9.825 9.00611 10.05L7.87222 11.6917C5.82833 10.5667 3.91444 8.44167 2.89611 6L4.30444 4.61667C4.49944 4.38333 4.55722 4.05833 4.47778 3.76667C4.21056 2.84167 4.07333 1.85 4.07333 0.825C4.07333 0.375 3.74833 0 3.35833 0H0.859444C0.469444 0 0 0.2 0 0.825C0 8.56667 5.58278 15 12.285 15C12.7978 15 13 14.475 13 14.0167V11.1417C13 10.6917 12.675 10.3167 12.285 10.3167Z" fill="#A0A0A0"/>
</svg>
