<svg width="20" height="20" viewBox="0 0 20 20" fill="none" xmlns="http://www.w3.org/2000/svg">
<path d="M14.6356 17.5008C14.5023 17.5014 14.3709 17.4699 14.2522 17.4092L10.0022 15.1842L5.75224 17.4092C5.61424 17.4817 5.45864 17.5141 5.30314 17.5027C5.14764 17.4912 4.99848 17.4363 4.8726 17.3443C4.74673 17.2523 4.64919 17.1268 4.59109 16.9821C4.53298 16.8374 4.51664 16.6793 4.54391 16.5258L5.37724 11.8342L1.94391 8.50082C1.83679 8.39393 1.7608 8.25988 1.7241 8.11307C1.6874 7.96625 1.69136 7.81222 1.73558 7.66749C1.78388 7.51938 1.87272 7.38778 1.99204 7.28762C2.11135 7.18746 2.25635 7.12274 2.41058 7.10082L7.16058 6.40915L9.25224 2.13415C9.32048 1.99326 9.42702 1.87444 9.55967 1.7913C9.69231 1.70816 9.8457 1.66406 10.0022 1.66406C10.1588 1.66406 10.3122 1.70816 10.4448 1.7913C10.5775 1.87444 10.684 1.99326 10.7522 2.13415L12.8689 6.40082L17.6189 7.09249C17.7731 7.11441 17.9181 7.17912 18.0375 7.27929C18.1568 7.37945 18.2456 7.51105 18.2939 7.65915C18.3381 7.80388 18.3421 7.95792 18.3054 8.10473C18.2687 8.25155 18.1927 8.38559 18.0856 8.49249L14.6522 11.8258L15.4856 16.5175C15.5153 16.6737 15.4998 16.8352 15.4407 16.9829C15.3816 17.1305 15.2815 17.2582 15.1522 17.3508C15.0013 17.4566 14.8196 17.5093 14.6356 17.5008Z" fill="#F6DA4B"/>
</svg>
