<svg width="20" height="20" viewBox="0 0 20 20" fill="none" xmlns="http://www.w3.org/2000/svg">
<path d="M9.99851 17.5003C9.88884 17.5009 9.78012 17.4799 9.67859 17.4384C9.57706 17.3969 9.48471 17.3358 9.40684 17.2586L2.93184 10.7753C2.11964 9.95457 1.66406 8.84656 1.66406 7.69192C1.66406 6.53728 2.11964 5.42928 2.93184 4.60859C3.75039 3.79235 4.8592 3.33398 6.01518 3.33398C7.17115 3.33398 8.27996 3.79235 9.09851 4.60859L9.99851 5.50859L10.8985 4.60859C11.7171 3.79235 12.8259 3.33398 13.9818 3.33398C15.1378 3.33398 16.2466 3.79235 17.0652 4.60859C17.8774 5.42928 18.333 6.53728 18.333 7.69192C18.333 8.84656 17.8774 9.95457 17.0652 10.7753L10.5902 17.2586C10.5123 17.3358 10.42 17.3969 10.3184 17.4384C10.2169 17.4799 10.1082 17.5009 9.99851 17.5003Z" fill="#FF9900"/>
</svg>
