<svg width="20" height="22" viewBox="0 0 20 22" fill="none" xmlns="http://www.w3.org/2000/svg">
<path d="M10.0024 18.4452C9.89275 18.4459 9.78403 18.4237 9.6825 18.38C9.58096 18.3363 9.48862 18.2719 9.41075 18.1905L2.93575 11.3567C2.12355 10.4916 1.66797 9.32374 1.66797 8.10669C1.66797 6.88964 2.12355 5.72174 2.93575 4.85669C3.7543 3.99633 4.86311 3.51318 6.01908 3.51318C7.17506 3.51318 8.28387 3.99633 9.10242 4.85669L10.0024 5.80534L10.9024 4.85669C11.721 3.99633 12.8298 3.51318 13.9858 3.51318C15.1417 3.51318 16.2505 3.99633 17.0691 4.85669C17.8813 5.72174 18.3369 6.88964 18.3369 8.10669C18.3369 9.32374 17.8813 10.4916 17.0691 11.3567L10.5941 18.1905C10.5162 18.2719 10.4239 18.3363 10.3223 18.38C10.2208 18.4237 10.1121 18.4459 10.0024 18.4452ZM6.01908 5.26953C5.66631 5.26784 5.31673 5.33995 4.99059 5.48169C4.66445 5.62342 4.36823 5.83195 4.11908 6.0952C3.6158 6.62848 3.33328 7.3501 3.33328 8.1023C3.33328 8.8545 3.6158 9.57611 4.11908 10.1094L10.0024 16.3195L15.8858 10.1094C16.389 9.57611 16.6716 8.8545 16.6716 8.1023C16.6716 7.3501 16.389 6.62848 15.8858 6.0952C15.3721 5.58373 14.6923 5.29877 13.9858 5.29877C13.2792 5.29877 12.5994 5.58373 12.0858 6.0952L10.5941 7.67628C10.5166 7.75861 10.4244 7.82396 10.3229 7.86855C10.2213 7.91315 10.1124 7.93611 10.0024 7.93611C9.89241 7.93611 9.78349 7.91315 9.68194 7.86855C9.58039 7.82396 9.48822 7.75861 9.41075 7.67628L7.91908 6.0952C7.66994 5.83195 7.37372 5.62342 7.04758 5.48169C6.72143 5.33995 6.37185 5.26784 6.01908 5.26953Z" fill="#231F20"/>
</svg>
