<svg width="20" height="16" viewBox="0 0 20 16" fill="none" xmlns="http://www.w3.org/2000/svg">
<path d="M20 7.6C20 7.91826 19.8736 8.22348 19.6485 8.44853C19.4235 8.67357 19.1183 8.8 18.8 8.8H1.2C0.88174 8.8 0.576516 8.67357 0.351472 8.44853C0.126428 8.22348 0 7.91826 0 7.6C0 7.28174 0.126428 6.97652 0.351472 6.75147C0.576516 6.52643 0.88174 6.4 1.2 6.4H18.8C19.1183 6.4 19.4235 6.52643 19.6485 6.75147C19.8736 6.97652 20 7.28174 20 7.6ZM1.2 2.4H18.8C19.1183 2.4 19.4235 2.27357 19.6485 2.04853C19.8736 1.82348 20 1.51826 20 1.2C20 0.88174 19.8736 0.576515 19.6485 0.351472C19.4235 0.126428 19.1183 0 18.8 0H1.2C0.88174 0 0.576516 0.126428 0.351472 0.351472C0.126428 0.576515 0 0.88174 0 1.2C0 1.51826 0.126428 1.82348 0.351472 2.04853C0.576516 2.27357 0.88174 2.4 1.2 2.4ZM18.8 12.8H1.2C0.88174 12.8 0.576516 12.9264 0.351472 13.1515C0.126428 13.3765 0 13.6817 0 14C0 14.3183 0.126428 14.6235 0.351472 14.8485C0.576516 15.0736 0.88174 15.2 1.2 15.2H18.8C19.1183 15.2 19.4235 15.0736 19.6485 14.8485C19.8736 14.6235 20 14.3183 20 14C20 13.6817 19.8736 13.3765 19.6485 13.1515C19.4235 12.9264 19.1183 12.8 18.8 12.8Z" fill="black"/>
</svg>
