<svg width="35" height="34" viewBox="0 0 35 34" fill="none" xmlns="http://www.w3.org/2000/svg">
<path d="M35 17.0146C35 17.7051 34.7787 18.3673 34.3849 18.8555C33.9911 19.3438 33.457 19.6181 32.9 19.6181H2.1C1.54305 19.6181 1.0089 19.3438 0.615076 18.8555C0.221249 18.3673 0 17.7051 0 17.0146C0 16.3242 0.221249 15.662 0.615076 15.1738C1.0089 14.6855 1.54305 14.4112 2.1 14.4112H32.9C33.457 14.4112 33.9911 14.6855 34.3849 15.1738C34.7787 15.662 35 16.3242 35 17.0146ZM2.1 5.73319H32.9C33.457 5.73319 33.9911 5.45891 34.3849 4.97067C34.7787 4.48244 35 3.82025 35 3.12978C35 2.43931 34.7787 1.77712 34.3849 1.28889C33.9911 0.800654 33.457 0.526367 32.9 0.526367H2.1C1.54305 0.526367 1.0089 0.800654 0.615076 1.28889C0.221249 1.77712 0 2.43931 0 3.12978C0 3.82025 0.221249 4.48244 0.615076 4.97067C1.0089 5.45891 1.54305 5.73319 2.1 5.73319ZM32.9 28.2961H2.1C1.54305 28.2961 1.0089 28.5704 0.615076 29.0586C0.221249 29.5469 0 30.209 0 30.8995C0 31.59 0.221249 32.2522 0.615076 32.7404C1.0089 33.2286 1.54305 33.5029 2.1 33.5029H32.9C33.457 33.5029 33.9911 33.2286 34.3849 32.7404C34.7787 32.2522 35 31.59 35 30.8995C35 30.209 34.7787 29.5469 34.3849 29.0586C33.9911 28.5704 33.457 28.2961 32.9 28.2961Z" fill="#313131"/>
</svg>
