<svg width="41" height="16" viewBox="0 0 41 16" fill="none" xmlns="http://www.w3.org/2000/svg">
<path d="M0.761364 15V0.454545H2.52273V6.93182H10.2784V0.454545H12.0398V15H10.2784V8.49432H2.52273V15H0.761364ZM27.8388 7.72727C27.8388 9.26136 27.5618 10.5871 27.0078 11.7045C26.4538 12.822 25.6939 13.6837 24.728 14.2898C23.7621 14.8958 22.6589 15.1989 21.4183 15.1989C20.1778 15.1989 19.0746 14.8958 18.1087 14.2898C17.1428 13.6837 16.3828 12.822 15.8288 11.7045C15.2749 10.5871 14.9979 9.26136 14.9979 7.72727C14.9979 6.19318 15.2749 4.86742 15.8288 3.75C16.3828 2.63258 17.1428 1.77083 18.1087 1.16477C19.0746 0.558712 20.1778 0.255681 21.4183 0.255681C22.6589 0.255681 23.7621 0.558712 24.728 1.16477C25.6939 1.77083 26.4538 2.63258 27.0078 3.75C27.5618 4.86742 27.8388 6.19318 27.8388 7.72727ZM26.1342 7.72727C26.1342 6.4678 25.9235 5.40483 25.5021 4.53835C25.0855 3.67188 24.5196 3.0161 23.8047 2.57102C23.0945 2.12595 22.299 1.90341 21.4183 1.90341C20.5376 1.90341 19.7398 2.12595 19.0249 2.57102C18.3146 3.0161 17.7488 3.67188 17.3274 4.53835C16.9107 5.40483 16.7024 6.4678 16.7024 7.72727C16.7024 8.98674 16.9107 10.0497 17.3274 10.9162C17.7488 11.7827 18.3146 12.4384 19.0249 12.8835C19.7398 13.3286 20.5376 13.5511 21.4183 13.5511C22.299 13.5511 23.0945 13.3286 23.8047 12.8835C24.5196 12.4384 25.0855 11.7827 25.5021 10.9162C25.9235 10.0497 26.1342 8.98674 26.1342 7.72727ZM29.3995 2.01705V0.454545H40.3086V2.01705H35.7347V15H33.9734V2.01705H29.3995Z" fill="#FF9900"/>
</svg>
