<svg width="99" height="27" viewBox="0 0 99 27" fill="none" xmlns="http://www.w3.org/2000/svg">
<path d="M0.926492 26V0.545454H7.07884V21.0036H17.6683V26H0.926492ZM43.8873 13.2727C43.8873 16.0734 43.3487 18.4473 42.2715 20.3945C41.1943 22.3417 39.736 23.8208 37.8965 24.8317C36.0653 25.8426 34.0104 26.348 31.7317 26.348C29.4448 26.348 27.3857 25.8384 25.5545 24.8192C23.7233 23.8001 22.2691 22.321 21.1919 20.3821C20.123 18.4349 19.5886 16.0651 19.5886 13.2727C19.5886 10.4721 20.123 8.09813 21.1919 6.15092C22.2691 4.20372 23.7233 2.72467 25.5545 1.71378C27.3857 0.702887 29.4448 0.197442 31.7317 0.197442C34.0104 0.197442 36.0653 0.702887 37.8965 1.71378C39.736 2.72467 41.1943 4.20372 42.2715 6.15092C43.3487 8.09813 43.8873 10.4721 43.8873 13.2727ZM37.5982 13.2727C37.5982 11.6155 37.362 10.2152 36.8897 9.07173C36.4257 7.92827 35.7546 7.06238 34.8762 6.47408C34.0062 5.88577 32.958 5.59162 31.7317 5.59162C30.5137 5.59162 29.4655 5.88577 28.5872 6.47408C27.7089 7.06238 27.0336 7.92827 26.5613 9.07173C26.0972 10.2152 25.8652 11.6155 25.8652 13.2727C25.8652 14.9299 26.0972 16.3303 26.5613 17.4737C27.0336 18.6172 27.7089 19.4831 28.5872 20.0714C29.4655 20.6597 30.5137 20.9538 31.7317 20.9538C32.958 20.9538 34.0062 20.6597 34.8762 20.0714C35.7546 19.4831 36.4257 18.6172 36.8897 17.4737C37.362 16.3303 37.5982 14.9299 37.5982 13.2727ZM70.5847 9.76775H64.3702C64.2873 9.12973 64.1175 8.55386 63.8606 8.04013C63.6038 7.5264 63.264 7.08724 62.8414 6.72266C62.4189 6.35807 61.9176 6.08049 61.3375 5.88991C60.7658 5.69105 60.1319 5.59162 59.4359 5.59162C58.2013 5.59162 57.1365 5.89406 56.2417 6.49893C55.3551 7.10381 54.6715 7.97798 54.1909 9.12145C53.7186 10.2649 53.4824 11.6487 53.4824 13.2727C53.4824 14.9631 53.7227 16.38 54.2033 17.5234C54.6922 18.6586 55.3758 19.5162 56.2541 20.0962C57.1407 20.668 58.1889 20.9538 59.3986 20.9538C60.0781 20.9538 60.6954 20.8668 61.2505 20.6928C61.814 20.5188 62.307 20.2661 62.7296 19.9347C63.1605 19.5949 63.5126 19.1848 63.786 18.7042C64.0678 18.2153 64.2625 17.6643 64.3702 17.0511L70.5847 17.0884C70.477 18.2153 70.1497 19.3256 69.6028 20.4194C69.0642 21.5131 68.3226 22.5116 67.378 23.4148C66.4334 24.3097 65.2817 25.0223 63.9228 25.5526C62.5721 26.0829 61.0227 26.348 59.2743 26.348C56.9708 26.348 54.9076 25.8426 53.0847 24.8317C51.2701 23.8125 49.8366 22.3293 48.7843 20.3821C47.7319 18.4349 47.2058 16.0651 47.2058 13.2727C47.2058 10.4721 47.7402 8.09813 48.8091 6.15092C49.878 4.20372 51.3239 2.72467 53.1468 1.71378C54.9698 0.702887 57.0123 0.197442 59.2743 0.197442C60.8155 0.197442 62.2407 0.412878 63.5499 0.84375C64.8591 1.26633 66.0108 1.88778 67.0051 2.7081C67.9995 3.52012 68.8074 4.51858 69.4288 5.70348C70.0502 6.88838 70.4355 8.24313 70.5847 9.76775ZM98.1304 13.2727C98.1304 16.0734 97.5918 18.4473 96.5146 20.3945C95.4375 22.3417 93.9791 23.8208 92.1396 24.8317C90.3084 25.8426 88.2535 26.348 85.9749 26.348C83.6879 26.348 81.6289 25.8384 79.7977 24.8192C77.9665 23.8001 76.5123 22.321 75.4351 20.3821C74.3662 18.4349 73.8318 16.0651 73.8318 13.2727C73.8318 10.4721 74.3662 8.09813 75.4351 6.15092C76.5123 4.20372 77.9665 2.72467 79.7977 1.71378C81.6289 0.702887 83.6879 0.197442 85.9749 0.197442C88.2535 0.197442 90.3084 0.702887 92.1396 1.71378C93.9791 2.72467 95.4375 4.20372 96.5146 6.15092C97.5918 8.09813 98.1304 10.4721 98.1304 13.2727ZM91.8414 13.2727C91.8414 11.6155 91.6052 10.2152 91.1329 9.07173C90.6689 7.92827 89.9977 7.06238 89.1194 6.47408C88.2494 5.88577 87.2012 5.59162 85.9749 5.59162C84.7568 5.59162 83.7087 5.88577 82.8303 6.47408C81.952 7.06238 81.2767 7.92827 80.8044 9.07173C80.3404 10.2152 80.1084 11.6155 80.1084 13.2727C80.1084 14.9299 80.3404 16.3303 80.8044 17.4737C81.2767 18.6172 81.952 19.4831 82.8303 20.0714C83.7087 20.6597 84.7568 20.9538 85.9749 20.9538C87.2012 20.9538 88.2494 20.6597 89.1194 20.0714C89.9977 19.4831 90.6689 18.6172 91.1329 17.4737C91.6052 16.3303 91.8414 14.9299 91.8414 13.2727Z" fill="#FF9900"/>
</svg>
