<svg width="18" height="17" viewBox="0 0 18 17" fill="none" xmlns="http://www.w3.org/2000/svg">
<path d="M13.5832 16.4962C13.4432 16.4968 13.3052 16.4641 13.1807 16.4008L8.71818 14.0831L4.25568 16.4008C4.11077 16.4764 3.94739 16.5101 3.78412 16.4982C3.62084 16.4862 3.46422 16.4291 3.33205 16.3332C3.19988 16.2374 3.09747 16.1067 3.03646 15.9559C2.97545 15.8052 2.95829 15.6406 2.98693 15.4806L3.86193 10.5936L0.256926 7.12146C0.144452 7.01011 0.0646637 6.87048 0.0261253 6.71756C-0.012413 6.56463 -0.00824709 6.40418 0.0381761 6.25343C0.088891 6.09915 0.18218 5.96207 0.307458 5.85774C0.432735 5.7534 0.584983 5.686 0.746926 5.66316L5.73443 4.94269L7.93068 0.489668C8.00233 0.342908 8.1142 0.219138 8.25347 0.132535C8.39275 0.0459323 8.5538 0 8.71818 0C8.88255 0 9.0436 0.0459323 9.18288 0.132535C9.32216 0.219138 9.43403 0.342908 9.50568 0.489668L11.7282 4.93401L16.7157 5.65448C16.8776 5.67732 17.0299 5.74472 17.1551 5.84906C17.2804 5.95339 17.3737 6.09047 17.4244 6.24474C17.4709 6.3955 17.475 6.55595 17.4365 6.70888C17.3979 6.8618 17.3182 7.00143 17.2057 7.11278L13.6007 10.5849L14.4757 15.472C14.5069 15.6347 14.4906 15.8029 14.4285 15.9567C14.3665 16.1105 14.2614 16.2435 14.1257 16.34C13.9672 16.4502 13.7764 16.5051 13.5832 16.4962Z" fill="#D9D9D9"/>
</svg>
