<svg width="21" height="18" viewBox="0 0 21 18" fill="none" xmlns="http://www.w3.org/2000/svg">
<path d="M10.4688 17.8704C10.3317 17.8712 10.1959 17.845 10.0689 17.7931C9.94202 17.7413 9.82659 17.6649 9.72926 17.5684L1.63551 9.46419C0.620259 8.43833 0.0507813 7.05332 0.0507812 5.61002C0.0507813 4.16672 0.620259 2.78171 1.63551 1.75586C2.6587 0.735555 4.04471 0.162598 5.48967 0.162598C6.93464 0.162598 8.32065 0.735555 9.34384 1.75586L10.4688 2.88086L11.5938 1.75586C12.617 0.735555 14.003 0.162598 15.448 0.162598C16.893 0.162598 18.279 0.735555 19.3022 1.75586C20.3174 2.78171 20.8869 4.16672 20.8869 5.61002C20.8869 7.05332 20.3174 8.43833 19.3022 9.46419L11.2084 17.5684C11.1111 17.6649 10.9957 17.7413 10.8687 17.7931C10.7418 17.845 10.6059 17.8712 10.4688 17.8704Z" fill="#FF9900"/>
</svg>
