<svg width="18" height="17" viewBox="0 0 18 17" fill="none" xmlns="http://www.w3.org/2000/svg">
<path d="M13.5832 16.7194C13.4432 16.72 13.3052 16.6882 13.1807 16.6268L8.71818 14.3783L4.25568 16.6268C4.11077 16.7001 3.94739 16.7329 3.78412 16.7213C3.62084 16.7097 3.46422 16.6543 3.33205 16.5613C3.19988 16.4683 3.09747 16.3415 3.03646 16.1953C2.97545 16.049 2.95829 15.8893 2.98693 15.7342L3.86193 10.9931L0.256926 7.62461C0.144451 7.51658 0.0646637 7.38112 0.0261253 7.23277C-0.012413 7.08441 -0.00824709 6.92875 0.0381761 6.78249C0.088891 6.63283 0.18218 6.49984 0.307458 6.39862C0.432735 6.2974 0.584983 6.23201 0.746926 6.20986L5.73443 5.5109L7.93068 1.19086C8.00233 1.04849 8.1142 0.928414 8.25347 0.844397C8.39275 0.760381 8.5538 0.71582 8.71818 0.71582C8.88255 0.71582 9.0436 0.760381 9.18288 0.844397C9.32216 0.928414 9.43403 1.04849 9.50568 1.19086L11.7282 5.50248L16.7157 6.20144C16.8776 6.22359 17.0299 6.28898 17.1551 6.3902C17.2804 6.49142 17.3737 6.62441 17.4244 6.77407C17.4708 6.92033 17.475 7.07598 17.4365 7.22434C17.3979 7.3727 17.3182 7.50816 17.2057 7.61618L13.6007 10.9846L14.4757 15.7257C14.5069 15.8836 14.4906 16.0468 14.4285 16.196C14.3665 16.3452 14.2614 16.4743 14.1257 16.5678C13.9672 16.6747 13.7764 16.728 13.5832 16.7194Z" fill="#F6DA4B"/>
</svg>
