<svg width="20" height="20" viewBox="0 0 20 20" fill="none" xmlns="http://www.w3.org/2000/svg">
<path d="M15.5824 19.4591C15.4245 19.4598 15.2688 19.4211 15.1283 19.3465L10.0937 16.6126L5.05909 19.3465C4.8956 19.4356 4.71128 19.4755 4.52707 19.4614C4.34287 19.4473 4.16616 19.3799 4.01705 19.2668C3.86794 19.1538 3.7524 18.9996 3.68357 18.8218C3.61473 18.644 3.59537 18.4497 3.62768 18.2611L4.61486 12.4963L0.547678 8.40054C0.420783 8.26919 0.330766 8.10448 0.287287 7.92409C0.243808 7.7437 0.248508 7.55443 0.300883 7.37659C0.3581 7.19461 0.463349 7.03291 0.604688 6.90984C0.746026 6.78677 0.917794 6.70725 1.1005 6.68031L6.72742 5.83044L9.20524 0.577616C9.28608 0.404497 9.41229 0.258497 9.56942 0.156339C9.72656 0.0541821 9.90825 0 10.0937 0C10.2792 0 10.4608 0.0541821 10.618 0.156339C10.7751 0.258497 10.9013 0.404497 10.9822 0.577616L13.4896 5.8202L19.1165 6.67007C19.2992 6.69701 19.471 6.77653 19.6123 6.8996C19.7537 7.02267 19.8589 7.18437 19.9161 7.36635C19.9685 7.54419 19.9732 7.73346 19.9297 7.91385C19.8863 8.09424 19.7962 8.25895 19.6693 8.3903L15.6022 12.4861L16.5893 18.2509C16.6246 18.4428 16.6061 18.6412 16.5362 18.8227C16.4662 19.0041 16.3476 19.161 16.1945 19.2748C16.0157 19.4047 15.8005 19.4696 15.5824 19.4591Z" fill="#FF9900"/>
</svg>
